<?xml version="1.0" encoding="UTF-8"?>
<svg width="142px" height="173px" viewBox="0 0 142 173" version="1.1" xmlns="http://www.w3.org/2000/svg" xmlns:xlink="http://www.w3.org/1999/xlink">
    <title>Fill 2</title>
    <g id="Welcome" stroke="none" stroke-width="1" fill="none" fill-rule="evenodd">
        <g id="Desktop" transform="translate(-442.000000, -90.000000)" fill="#FFFFFF">
            <polygon id="Fill-2" points="577.318976 104.32244 585 104.32244 583.229918 104.32244 583.229918 96.8351961 583.229918 90 576.450882 90 576.450882 97.16122 442 97.16122 442 104.343924 442 110.184464 442 117.514161 442.455702 117.514161 450.136726 117.514161 576.450882 117.514161 576.450882 123.167756 442 123.167756 442 131.042837 442 136.883377 442 144.651416 532.763761 144.651416 532.763761 149.928105 494.969881 149.928105 493.032207 149.928105 487.570187 149.928105 487.570187 163.58229 487.570187 172.165577 532.763761 172.165577 532.763761 177.442266 487.570187 177.442266 487.570187 184.440662 487.570187 190.281203 487.570187 197.418301 532.763761 197.418301 532.763761 202.694989 494.969881 202.694989 487.590524 202.694989 487.570187 202.694989 487.570187 224.932462 532.763761 224.932462 532.763761 229.832244 494.830158 229.832244 487.606342 229.832244 487.570187 229.832244 487.570187 249.808279 532.763761 249.808279 532.763761 255.461874 442 255.461874 442 263 539.91941 263 539.91941 262.798732 539.91941 255.478458 539.91941 249.648847 539.91941 243.023965 532.486197 243.023965 494.349223 243.023965 494.349223 237.37037 532.486197 237.37037 539.91941 237.37037 539.91941 217.394336 532.486197 217.394336 494.349223 217.394336 494.349223 211.740741 539.91941 211.740741 539.91941 189.880174 539.57142 189.880174 532.532144 189.880174 494.349223 189.880174 494.349223 184.22658 539.91941 184.22658 539.91941 176.931935 539.91941 162.742919 539.888904 162.742919 532.346474 162.742919 494.349223 162.742919 494.349223 157.089325 532.486197 157.089325 539.91941 157.089325 539.91941 137.490196 449.155649 137.490196 449.155649 131.836601 583.229918 131.836601 583.229918 123.533732 583.229918 117.693569 583.229918 109.976035 585 109.976035 577.318976 109.976035 449.155649 109.976035 449.155649 104.32244"></polygon>
        </g>
    </g>
</svg>